<svg width="1920" height="1898" viewBox="0 0 1920 1898" fill="none" xmlns="http://www.w3.org/2000/svg">
    <g style="mix-blend-mode:screen" opacity="0.05">
        <path d="M-360.433 768.066C-147.883 392.34 22.5319 229.409 413.009 372.966C681.51 471.656 898.785 558.374 1185.57 1068.35C1344.96 1352.44 2110.74 714.343 2238.95 1388.68" stroke="#4FD0BA" stroke-opacity="0.18" stroke-width="0.1" stroke-miterlimit="10" stroke-linecap="round"/>
    </g>
    <g style="mix-blend-mode:screen" opacity="0.1">
        <path d="M-342.492 733.271C-108.433 375.267 34.4471 259.026 429.043 405.447C700.033 505.961 917.798 555.549 1218.93 1061.35C1385.65 1342.64 2118.77 761.509 2240.57 1402.12" stroke="#4FD0BA" stroke-opacity="0.18" stroke-width="0.19" stroke-miterlimit="10" stroke-linecap="round"/>
    </g>
    <g style="mix-blend-mode:screen" opacity="0.14">
        <path d="M-324.558 698.461C-68.976 358.212 46.3552 288.626 445.081 437.918C718.572 540.26 936.81 552.695 1252.29 1054.35C1426.37 1332.82 2126.81 808.663 2242.19 1415.57" stroke="#4FD0BA" stroke-opacity="0.18" stroke-width="0.29" stroke-miterlimit="10" stroke-linecap="round"/>
    </g>
    <g style="mix-blend-mode:screen" opacity="0.19">
        <path d="M-306.617 663.666C-29.5139 341.145 58.2704 318.243 461.115 470.4C737.09 574.578 955.828 549.859 1285.65 1047.35C1467.07 1323 2134.84 855.828 2243.81 1429.01" stroke="#4FD0BA" stroke-opacity="0.18" stroke-width="0.38" stroke-miterlimit="10" stroke-linecap="round"/>
    </g>
    <g style="mix-blend-mode:screen" opacity="0.24">
        <path d="M-288.682 628.854C9.94326 324.089 70.179 347.842 477.166 502.875C755.641 608.881 974.852 547.009 1319.02 1040.35C1507.79 1313.2 2142.88 902.998 2245.45 1442.46" stroke="#4FD0BA" stroke-opacity="0.18" stroke-width="0.48" stroke-miterlimit="10" stroke-linecap="round"/>
    </g>
    <g style="mix-blend-mode:screen" opacity="0.29">
        <path d="M-270.741 594.059C49.4055 307.021 82.0823 377.453 493.2 535.356C774.164 643.186 994.927 543.403 1352.37 1033.35C1549.07 1302.96 2150.91 950.151 2247.07 1455.9" stroke="#4FD0BA" stroke-opacity="0.18" stroke-width="0.57" stroke-miterlimit="10" stroke-linecap="round"/>
    </g>
    <g style="mix-blend-mode:screen" opacity="0.33">
        <path d="M-252.807 559.248C88.8622 289.966 94.0025 407.058 509.238 567.827C792.703 677.486 1014.02 540.469 1385.74 1026.35C1589.83 1293.11 2158.96 997.322 2248.7 1469.35" stroke="#4FD0BA" stroke-opacity="0.18" stroke-width="0.67" stroke-miterlimit="10" stroke-linecap="round"/>
    </g>
    <g style="mix-blend-mode:screen" opacity="0.38">
        <path d="M-234.865 524.452C128.325 272.897 105.906 436.668 525.272 600.307C811.226 711.79 1033.07 537.559 1419.1 1019.35C1630.54 1283.25 2166.99 1044.47 2250.32 1482.79" stroke="#4FD0BA" stroke-opacity="0.18" stroke-width="0.76" stroke-miterlimit="10" stroke-linecap="round"/>
    </g>
    <g style="mix-blend-mode:screen" opacity="0.43">
        <path d="M-216.937 489.653C167.769 255.837 117.809 466.281 541.306 632.79C829.76 746.101 1052.09 534.67 1452.45 1012.36C1671.25 1273.42 2175.02 1091.65 2251.95 1496.25" stroke="#4FD0BA" stroke-opacity="0.18" stroke-width="0.86" stroke-miterlimit="10" stroke-linecap="round"/>
    </g>
    <g style="mix-blend-mode:screen" opacity="0.48">
        <path d="M-198.99 454.846C207.232 238.769 129.73 495.884 557.357 665.264C848.295 780.411 1071.12 531.79 1485.83 1005.35C1711.98 1263.58 2183.06 1138.81 2253.59 1509.69" stroke="#4FD0BA" stroke-opacity="0.18" stroke-width="0.95" stroke-miterlimit="10" stroke-linecap="round"/>
    </g>
    <g style="mix-blend-mode:screen" opacity="0.52">
        <path d="M-181.061 420.046C246.689 221.713 141.633 525.496 573.39 697.746C866.83 814.721 1090.09 528.933 1519.18 998.357C1752.65 1253.78 2191.09 1185.98 2255.21 1523.14" stroke="#4FD0BA" stroke-opacity="0.18" stroke-width="1.05" stroke-miterlimit="10" stroke-linecap="round"/>
    </g>
    <g style="mix-blend-mode:screen" opacity="0.57">
        <path d="M-163.114 385.239C286.151 204.646 153.542 555.095 589.43 730.216C885.358 849.014 1109.05 526.087 1552.55 991.343C1793.33 1243.95 2199.13 1233.13 2256.83 1536.57" stroke="#4FD0BA" stroke-opacity="0.18" stroke-width="1.14" stroke-miterlimit="10" stroke-linecap="round"/>
    </g>
    <g style="mix-blend-mode:screen" opacity="0.62">
        <path d="M-145.185 350.44C325.608 187.591 165.445 584.707 605.463 762.698C903.892 883.326 1128 523.278 1585.9 984.354C1833.99 1234.16 2207.16 1280.29 2258.45 1550.03" stroke="#4FD0BA" stroke-opacity="0.18" stroke-width="1.24" stroke-miterlimit="10" stroke-linecap="round"/>
    </g>
    <g style="mix-blend-mode:screen" opacity="0.67">
        <path d="M-127.239 315.633C365.07 170.523 177.365 614.311 621.514 795.173C922.432 917.624 1146.95 520.48 1619.27 977.344C1874.66 1224.37 2215.21 1327.45 2260.09 1563.46" stroke="#4FD0BA" stroke-opacity="0.18" stroke-width="1.33" stroke-miterlimit="10" stroke-linecap="round"/>
    </g>
    <g style="mix-blend-mode:screen" opacity="0.71">
        <path d="M-109.31 280.833C404.527 153.467 189.274 643.911 637.548 827.655C940.966 951.934 1165.02 518.617 1652.63 970.354C1914.86 1215.1 2223.24 1374.62 2261.7 1576.93" stroke="#4FD0BA" stroke-opacity="0.18" stroke-width="1.43" stroke-miterlimit="10" stroke-linecap="round"/>
    </g>
    <g style="mix-blend-mode:screen" opacity="0.76">
        <path d="M-91.3691 246.039C443.989 136.4 201.188 673.528 653.581 860.137C959.483 986.253 1184.03 515.776 1685.99 963.37C1955.57 1205.3 2231.27 1421.8 2263.33 1590.39" stroke="#4FD0BA" stroke-opacity="0.18" stroke-width="1.52" stroke-miterlimit="10" stroke-linecap="round"/>
    </g>
    <g style="mix-blend-mode:screen" opacity="0.81">
        <path d="M-73.4346 211.227C483.439 119.327 213.097 703.127 669.62 892.607C978.023 1020.55 1203.05 512.927 1719.35 956.356C1996.28 1195.48 2239.31 1468.95 2264.96 1603.82" stroke="#4FD0BA" stroke-opacity="0.18" stroke-width="1.62" stroke-miterlimit="10" stroke-linecap="round"/>
    </g>
    <g style="mix-blend-mode:screen" opacity="0.86">
        <path d="M-55.4933 176.432C522.896 102.271 225.012 732.743 685.671 925.082C996.563 1054.85 1222.07 510.09 1752.72 949.359C2036.99 1185.67 2247.36 1516.11 2266.59 1617.27" stroke="#4FD0BA" stroke-opacity="0.18" stroke-width="1.71" stroke-miterlimit="10" stroke-linecap="round"/>
    </g>
    <g style="mix-blend-mode:screen" opacity="0.9">
        <path d="M-37.5591 141.62C562.359 85.2039 236.921 762.343 701.705 957.564C1015.1 1089.16 1241.09 507.253 1786.08 942.357C2077.71 1175.85 2255.39 1563.28 2268.21 1630.71" stroke="#4FD0BA" stroke-opacity="0.18" stroke-width="1.81" stroke-miterlimit="10" stroke-linecap="round"/>
    </g>
    <g style="mix-blend-mode:screen" opacity="0.95">
        <path d="M-19.6178 106.826C601.816 68.1483 248.824 791.954 717.738 990.045C1033.62 1123.46 1260.11 504.416 1819.43 935.367C2118.4 1166.06 2263.42 1610.44 2269.83 1644.17" stroke="#4FD0BA" stroke-opacity="0.18" stroke-width="1.9" stroke-miterlimit="10" stroke-linecap="round"/>
    </g>
    <g style="mix-blend-mode:screen">
        <path d="M-1.6834 72.0138C641.278 51.0806 260.733 821.554 733.777 1022.52C1052.16 1157.76 1279.12 501.562 1852.8 928.353C2159.1 1156.22 2271.45 1657.6 2271.45 1657.6" stroke="#4FD0BA" stroke-opacity="0.18" stroke-width="2" stroke-miterlimit="10" stroke-linecap="round"/>
    </g>
</svg>