<svg xmlns="http://www.w3.org/2000/svg" width="253" height="151" viewBox="0 0 253 151" fill="none">
    <path d="M15.6848 126.86H24.5104V132.573C22.4529 134.25 19.8918 135.112 16.7822 135.112C13.6269 135.112 11.0662 134.114 9.19145 132.119C7.27064 130.124 6.3106 127.449 6.3106 124.139C6.3106 120.83 7.31668 118.2 9.28281 116.16C11.2493 114.165 13.8557 113.167 17.1024 113.167C20.3494 113.167 23.0471 114.255 25.2881 116.477L29.2207 112.578C25.9737 109.268 21.9497 107.59 17.148 107.59C12.0723 107.59 7.95659 109.132 4.80129 112.215C1.60031 115.298 0 119.288 0 124.139C0 129.172 1.50895 133.162 4.57288 136.155C7.63681 139.192 11.6608 140.689 16.7365 140.689C22.2241 140.689 26.6596 138.92 30.0894 135.384V121.646H15.6848V126.86Z" fill="#F8FAF9"/>
    <path d="M46.5378 117.219C43.906 117.219 41.782 118.308 40.1196 120.486L39.6119 117.673H34.3019V140.087H40.4429V129.152C40.4429 125.114 42.613 122.754 45.9835 122.754C47.2765 122.754 48.5234 123.163 49.6776 123.934L52.3555 119.261C50.878 117.899 48.9389 117.219 46.5378 117.219Z" fill="#F8FAF9"/>
    <path d="M60.3649 113.632C61.0284 112.991 61.3822 112.167 61.3822 111.16C61.3822 109.101 59.8343 107.59 57.7554 107.59C55.6762 107.59 54.1724 109.101 54.1724 111.16C53.907 114.273 58.2418 115.783 60.3649 113.632ZM60.6745 140.087V117.477H54.7917V140.087H60.6745Z" fill="#F8FAF9"/>
    <path d="M84.0666 119.849V117.821H65.2167V123.094H75.1232L64.3912 137.923V140.087H84.2502V134.678H73.3804L84.0666 119.849Z" fill="#F8FAF9"/>
    <path d="M106.339 119.849V117.821H88.0599V123.094H97.6659L87.2592 137.923V140.087H106.516V134.678H95.9763L106.339 119.849Z" fill="#F8FAF9"/>
    <path d="M116.747 140.087V108.192H110.729V140.087H116.747Z" fill="#F8FAF9"/>
    <path d="M134.746 126.593L132.116 133.455L129.718 126.593L126.351 117.821H119.756L128.704 140L124.184 150.317H130.779L145.031 117.821H138.389L134.746 126.593Z" fill="#F8FAF9"/>
    <path d="M169.588 140.689C173.594 140.689 176.864 139.782 179.305 137.968C181.746 136.155 182.943 133.752 182.943 130.804C182.943 125.318 178.983 122.326 170.002 121.102C164.982 120.512 162.909 119.243 162.909 116.93C162.909 114.618 165.673 112.986 169.68 112.986C172.857 112.986 175.805 113.938 178.43 115.842L181.562 111.399C178.061 108.86 174.055 107.59 169.495 107.59C165.673 107.59 162.587 108.452 160.238 110.22C157.843 111.988 156.646 114.255 156.646 117.021C156.646 122.689 160.468 125.59 169.265 126.633C174.377 127.223 176.588 128.492 176.588 130.895C176.588 133.434 173.871 135.021 169.588 135.021C165.488 135.021 162.034 133.888 159.179 131.575L155.863 136.245C159.64 139.192 164.199 140.689 169.588 140.689Z" fill="#F8FAF9"/>
    <path d="M204.307 122.773L192.782 108.192H187.156V140.087H193.417V118.535L203.672 131.43H204.942L215.196 118.535V140.087H221.458V108.192H215.786L204.307 122.773Z" fill="#F8FAF9"/>
    <path d="M239.395 140.689C243.402 140.689 246.671 139.782 249.112 137.968C251.553 136.155 252.751 133.752 252.751 130.804C252.751 125.318 248.79 122.326 239.809 121.102C234.789 120.512 232.716 119.243 232.716 116.93C232.716 114.618 235.48 112.986 239.487 112.986C242.664 112.986 245.612 113.938 248.237 115.842L251.369 111.399C247.869 108.86 243.862 107.59 239.303 107.59C235.48 107.59 232.394 108.452 230.045 110.22C227.65 111.988 226.453 114.255 226.453 117.021C226.453 122.689 230.276 125.59 239.072 126.633C244.184 127.223 246.395 128.492 246.395 130.895C246.395 133.434 243.678 135.021 239.395 135.021C235.296 135.021 231.842 133.888 228.986 131.575L225.67 136.245C229.447 139.192 234.006 140.689 239.395 140.689Z" fill="#F8FAF9"/>
    <path d="M119.778 8.37345C123.638 6.14403 128.392 6.14403 132.252 8.37345L157.39 22.895C161.249 25.1244 163.627 29.2444 163.627 33.7032V62.7461C163.627 67.2052 161.249 71.325 157.39 73.5546L132.252 88.0759C128.392 90.3054 123.638 90.3054 119.778 88.0759L94.6401 73.5546C90.7809 71.325 88.4034 67.2052 88.4034 62.7461V33.7032C88.4034 29.2444 90.7809 25.1244 94.6401 22.895L119.778 8.37345Z" fill="#FB7800"/>
    <path d="M102.751 1.42452C104.478 0.436249 106.586 0.43625 108.313 1.42453L114.326 4.86611C115.87 5.7493 115.87 8.01104 114.326 8.89422L96.6 19.0389C95.0869 19.9048 93.2178 18.7918 93.2178 17.0248V10.2593C93.2178 8.172 94.324 6.24708 96.1114 5.22416L102.751 1.42452Z" fill="#FB7800"/>
    <path d="M149.28 1.42452C147.553 0.436249 145.444 0.43625 143.718 1.42453L137.704 4.86611C136.161 5.7493 136.161 8.01104 137.704 8.89422L155.43 19.0389C156.943 19.9048 158.813 18.7918 158.813 17.0248V10.2593C158.813 8.172 157.706 6.24708 155.919 5.22416L149.28 1.42452Z" fill="#FB7800"/>
    <path d="M110.971 35.5871C112.134 35.5871 113.077 34.3746 113.077 32.879C113.077 31.3834 112.134 30.171 110.971 30.171C109.807 30.171 108.864 31.3834 108.864 32.879C108.864 34.3746 109.807 35.5871 110.971 35.5871Z" fill="white"/>
    <path d="M141.662 35.5871C143.157 35.5871 144.37 34.3746 144.37 32.879C144.37 31.3834 143.157 30.171 141.662 30.171C140.166 30.171 138.953 31.3834 138.953 32.879C138.953 34.3746 140.166 35.5871 141.662 35.5871Z" fill="white"/>
    <path d="M105.696 61.1352C104.303 58.6287 104.303 55.5544 105.696 53.0478L112.442 40.911C113.858 38.3637 116.497 36.791 119.355 36.791H132.675C135.533 36.791 138.172 38.3637 139.588 40.911L146.334 53.0478C147.727 55.5544 147.727 58.6287 146.334 61.1352L139.588 73.272C139.244 73.8924 138.826 74.4549 138.351 74.951C137.967 75.3517 137.349 75.3342 136.934 74.9666L127.716 66.8038C127.466 66.5818 127.322 66.2598 127.322 65.9207V59.1319C127.322 58.927 127.375 58.7259 127.475 58.5485L132.971 48.7822C134.196 46.6053 132.665 43.8841 130.215 43.8841H122.043C119.593 43.8841 118.061 46.6053 119.286 48.7822L124.783 58.5485C124.883 58.7259 124.935 58.927 124.935 59.1319V65.8206C124.935 66.1592 124.791 66.4818 124.542 66.7032L115.153 75.0249C114.741 75.3897 114.129 75.4105 113.744 75.0173C113.242 74.5051 112.802 73.9203 112.442 73.272L105.696 61.1352Z" fill="white"/>
    <path d="M118.275 74.737C117.625 75.3042 117.827 76.3477 118.68 76.4515C118.992 76.4896 119.309 76.5087 119.629 76.5087H132.901C133.26 76.5087 133.614 76.4845 133.963 76.4366C134.809 76.3217 135.003 75.2842 134.357 74.7207L127.062 68.3617C126.637 67.9909 126.007 67.9909 125.582 68.3622L118.275 74.737Z" fill="white"/>
</svg>