<svg width="289" height="62" viewBox="0 0 289 62" fill="none" xmlns="http://www.w3.org/2000/svg">
    <path d="M40.6897 47H32.8521L28.9783 36.0393H12.0417L8.31812 47H0.510498L16.6362 3.93799H24.6841L40.6897 47ZM27.0864 30.2136L21.1106 13.0369C20.9304 12.4763 20.7402 11.5754 20.54 10.3342H20.4199C20.2397 11.4753 20.0396 12.3762 19.8193 13.0369L13.9036 30.2136H27.0864ZM73.2415 47H66.2747V29.6731C66.2747 23.9275 64.2427 21.0547 60.1787 21.0547C58.0566 21.0547 56.3049 21.8555 54.9236 23.457C53.5422 25.0386 52.8516 27.0405 52.8516 29.4629V47H45.8547V16.25H52.8516V21.355H52.9717C55.2739 17.4712 58.5972 15.5293 62.9414 15.5293C66.2847 15.5293 68.8372 16.6204 70.5989 18.8025C72.3606 20.9646 73.2415 24.0977 73.2415 28.2017V47ZM97.9856 46.6697C96.6243 47.3503 94.8325 47.6907 92.6104 47.6907C86.6445 47.6907 83.6616 44.8279 83.6616 39.1023V21.7153H78.5266V16.25H83.6616V9.13306L90.6284 7.15112V16.25H97.9856V21.7153H90.6284V37.0903C90.6284 38.9121 90.9587 40.2134 91.6194 40.9941C92.28 41.7749 93.3811 42.1653 94.9226 42.1653C96.1038 42.1653 97.1248 41.825 97.9856 41.1443V46.6697ZM107.505 9.7937C106.364 9.7937 105.383 9.42334 104.562 8.68262C103.761 7.94189 103.361 7.00098 103.361 5.85986C103.361 4.71875 103.761 3.76782 104.562 3.00708C105.383 2.24634 106.364 1.86597 107.505 1.86597C108.686 1.86597 109.687 2.24634 110.508 3.00708C111.329 3.76782 111.739 4.71875 111.739 5.85986C111.739 6.94092 111.329 7.87183 110.508 8.65259C109.687 9.41333 108.686 9.7937 107.505 9.7937ZM110.958 47H103.991V16.25H110.958V47Z" fill="#F1757D"/>
    <path d="M118.886 45.2883V37.9312C119.547 38.5317 120.327 39.0723 121.228 39.5527C122.149 40.0332 123.12 40.4436 124.141 40.7839C125.162 41.1042 126.183 41.3545 127.204 41.5347C128.225 41.7148 129.166 41.8049 130.027 41.8049C133.03 41.8049 135.262 41.3044 136.723 40.3035C138.205 39.3025 138.946 37.8511 138.946 35.9492C138.946 34.9282 138.695 34.0474 138.195 33.3066C137.714 32.5459 137.034 31.8552 136.153 31.2346C135.272 30.614 134.231 30.0234 133.03 29.4629C131.849 28.8823 130.577 28.2817 129.216 27.6611C127.755 26.8804 126.393 26.0896 125.132 25.2888C123.871 24.488 122.77 23.6072 121.829 22.6462C120.908 21.6653 120.177 20.5642 119.637 19.343C119.116 18.1218 118.856 16.6904 118.856 15.0488C118.856 13.0269 119.306 11.2751 120.207 9.7937C121.128 8.29224 122.329 7.06104 123.811 6.1001C125.312 5.11914 127.014 4.39844 128.916 3.93799C130.818 3.45752 132.76 3.21729 134.741 3.21729C139.246 3.21729 142.529 3.72778 144.591 4.74878V11.8057C142.149 10.0439 139.006 9.16309 135.162 9.16309C134.101 9.16309 133.04 9.26318 131.979 9.46338C130.938 9.66357 129.997 9.9939 129.156 10.4543C128.335 10.9148 127.665 11.5054 127.144 12.2261C126.624 12.9468 126.363 13.8176 126.363 14.8386C126.363 15.7996 126.563 16.6304 126.964 17.3311C127.364 18.0317 127.945 18.6724 128.706 19.2529C129.486 19.8335 130.427 20.4041 131.528 20.9646C132.649 21.5051 133.941 22.0957 135.402 22.7363C136.904 23.5171 138.315 24.3379 139.636 25.1987C140.978 26.0596 142.149 27.0105 143.15 28.0515C144.171 29.0925 144.971 30.2537 145.552 31.5349C146.153 32.7961 146.453 34.2375 146.453 35.8591C146.453 38.0413 146.012 39.8831 145.132 41.3845C144.251 42.886 143.06 44.1072 141.558 45.0481C140.077 45.989 138.365 46.6697 136.423 47.0901C134.481 47.5105 132.429 47.7207 130.267 47.7207C129.546 47.7207 128.656 47.6606 127.594 47.5405C126.553 47.4404 125.482 47.2803 124.381 47.0601C123.28 46.8599 122.239 46.6096 121.258 46.3093C120.277 46.009 119.487 45.6687 118.886 45.2883ZM177.203 47H170.446V42.1953H170.326C168.204 45.8789 165.091 47.7207 160.987 47.7207C157.964 47.7207 155.592 46.8999 153.87 45.2583C152.168 43.6167 151.318 41.4446 151.318 38.7419C151.318 32.9363 154.661 29.553 161.347 28.592L170.476 27.3008C170.476 22.9165 168.394 20.7244 164.23 20.7244C160.567 20.7244 157.263 21.9856 154.321 24.5081V18.4121C157.564 16.4902 161.307 15.5293 165.552 15.5293C173.319 15.5293 177.203 19.353 177.203 27.0005V47ZM170.476 31.8953L164.02 32.7961C162.018 33.0564 160.507 33.5469 159.486 34.2676C158.485 34.9683 157.984 36.2095 157.984 37.9912C157.984 39.2925 158.445 40.3635 159.365 41.2043C160.306 42.0251 161.558 42.4355 163.119 42.4355C165.241 42.4355 166.993 41.6948 168.374 40.2134C169.776 38.7119 170.476 36.8301 170.476 34.5679V31.8953ZM203.118 7.15112C202.177 6.6106 201.106 6.34033 199.905 6.34033C196.522 6.34033 194.83 8.2522 194.83 12.0759V16.25H201.977V21.7153H194.86V47H187.893V21.7153H182.638V16.25H187.893V11.2651C187.893 8.02197 188.954 5.46948 191.076 3.60767C193.198 1.72583 195.851 0.784912 199.034 0.784912C200.756 0.784912 202.117 0.975098 203.118 1.35547V7.15112ZM232.967 33.5168H212.007C212.087 36.3596 212.958 38.5518 214.619 40.0933C216.301 41.6348 218.603 42.4055 221.526 42.4055C224.809 42.4055 227.822 41.4246 230.565 39.4626V45.0781C227.762 46.8398 224.059 47.7207 219.454 47.7207C214.93 47.7207 211.376 46.3293 208.794 43.5466C206.231 40.7439 204.95 36.8101 204.95 31.7451C204.95 26.9604 206.361 23.0667 209.184 20.0637C212.027 17.0408 215.55 15.5293 219.754 15.5293C223.958 15.5293 227.212 16.8806 229.514 19.5833C231.816 22.2859 232.967 26.0396 232.967 30.8442V33.5168ZM226.241 28.592C226.221 26.0896 225.63 24.1477 224.469 22.7664C223.308 21.365 221.706 20.6643 219.664 20.6643C217.662 20.6643 215.961 21.395 214.559 22.8564C213.178 24.3179 212.327 26.2297 212.007 28.592H226.241ZM255.82 46.6697C254.458 47.3503 252.667 47.6907 250.444 47.6907C244.479 47.6907 241.496 44.8279 241.496 39.1023V21.7153H236.361V16.25H241.496V9.13306L248.462 7.15112V16.25H255.82V21.7153H248.462V37.0903C248.462 38.9121 248.793 40.2134 249.453 40.9941C250.114 41.7749 251.215 42.1653 252.757 42.1653C253.938 42.1653 254.959 41.825 255.82 41.1443V46.6697ZM288.461 16.25L274.588 51.9248C271.705 58.291 267.661 61.4741 262.456 61.4741C260.995 61.4741 259.773 61.344 258.792 61.0837V55.2881C259.894 55.6484 260.895 55.8286 261.795 55.8286C264.398 55.8286 266.34 54.5474 267.621 51.9849L269.693 46.9399L257.471 16.25H265.189L272.516 38.5918C272.596 38.8721 272.776 39.6128 273.056 40.814H273.207C273.307 40.3535 273.487 39.6328 273.747 38.6519L281.435 16.25H288.461Z" fill="white"/>
</svg>