<svg xmlns="http://www.w3.org/2000/svg" width="252" height="144" viewBox="0 0 252 144" fill="none">
    <path d="M87.6728 29.883H141.714C139.988 31.8422 138.38 33.6415 136.803 35.4685C133.726 39.034 130.676 42.6239 127.595 46.1876C126.146 47.8652 124.647 49.4993 123.189 51.1682C122.831 51.5767 122.547 52.0478 122.226 52.4876C121.352 53.6837 120.274 54.3078 118.694 54.1165C117.422 53.9635 116.116 54.0852 114.577 54.0852C120.15 47.674 125.528 41.4852 131.073 35.1052C130.489 35.0218 130.194 34.9435 129.899 34.9418C126.236 34.9331 122.573 34.8914 118.914 34.987C118.35 35.0009 117.748 35.6094 117.267 36.0527C116.686 36.5881 116.215 37.2417 115.692 37.8397C111.04 43.1715 106.389 48.5067 101.734 53.8349C99.2115 56.7224 96.677 59.5977 94.1529 62.4853C93.1238 63.6622 92.1016 64.846 91.1021 66.0473C90.919 66.2663 90.8579 66.5879 90.6661 67.0347H168.696C168.482 68.1073 168.485 69.159 168.06 69.9952C166.989 72.1039 165.911 74.2561 164.491 76.1318C162.752 78.4317 160.36 80.0015 157.634 81.1072C154.644 82.3206 151.574 82.6074 148.393 82.5987C133.948 82.557 119.501 82.6265 105.057 82.5396C102.208 82.5222 99.522 81.5592 96.9282 80.2553C94.5611 79.0663 92.754 77.3192 91.1684 75.3391C89.6509 73.4425 88.4002 71.3095 88.1473 68.8148C87.8873 66.2454 87.6431 63.6604 87.6274 61.0824C87.5681 51.0882 87.6013 41.0958 87.6048 31.1017C87.6048 30.7314 87.6449 30.3611 87.6728 29.8813V29.883Z" fill="#18A3FA"/>
    <path d="M169.402 54.2066H133.726C144.55 41.7113 155.186 29.4329 165.846 17.1282H87.6469C87.6469 16.5666 87.5103 15.9 87.6697 15.3139C88.6243 11.8131 90.2743 8.62537 92.8859 6.12176C95.254 3.85083 98.2036 2.53341 101.393 1.54141C105.345 0.313221 109.312 0.773354 113.272 0.743611C124.248 0.657883 135.225 0.712119 146.202 0.717368C146.57 0.717368 146.936 0.775104 147.843 0.850335C144.361 4.87432 141.129 8.60788 137.752 12.5094H150.492C153.15 9.46166 155.9 6.31246 158.782 3.01104C159.365 3.26298 159.959 3.44493 160.479 3.75285C163.296 5.42368 165.38 7.7436 166.983 10.6251C169.249 14.6998 169.54 19.0562 169.505 23.5631C169.43 33.3606 169.484 43.1582 169.48 52.9557C169.48 53.3266 169.437 53.6958 169.403 54.2119L169.402 54.2066Z" fill="#39C051"/>
    <path d="M234.261 116.471C235.555 116.471 236.727 116.471 237.899 116.471C241.154 116.473 244.409 116.476 247.664 116.476C249.239 116.476 250.536 117.045 251.393 118.439C251.585 118.752 251.748 119.149 251.75 119.508C251.77 126.38 251.77 133.254 251.762 140.126C251.762 141.375 250.088 143.068 248.594 143.078C241.243 143.129 233.891 143.097 226.539 143.09C226.461 143.09 226.385 143.031 226.224 142.968C226.197 142.669 226.14 142.339 226.14 142.007C226.135 130.267 226.148 118.525 226.118 106.784C226.114 105.659 226.461 105.262 227.573 105.312C229.309 105.391 231.052 105.346 232.791 105.329C233.783 105.319 234.206 105.776 234.197 106.791C234.171 109.598 234.184 112.404 234.189 115.21C234.189 115.576 234.229 115.94 234.261 116.471ZM234.307 122.077V137.876H244.15V122.077H234.307Z" fill="#39C051"/>
    <path d="M213.157 127.253V122.371C212.751 122.328 212.315 122.243 211.88 122.242C207.439 122.232 202.996 122.216 198.554 122.25C197.572 122.257 197.223 121.894 197.257 120.949C197.307 119.609 197.269 118.265 197.269 116.866C197.773 116.835 198.081 116.802 198.389 116.802C204.322 116.8 210.255 116.849 216.186 116.783C219.815 116.744 221.262 118.953 221.317 121.765C221.451 128.546 221.377 135.331 221.32 142.113C221.317 142.447 220.675 143.063 220.326 143.065C213.076 143.117 205.825 143.114 198.575 143.089C196.91 143.083 194.981 141.57 194.823 139.959C194.563 137.307 194.252 134.613 194.464 131.977C194.675 129.339 195.989 127.299 199.614 127.326C203.684 127.356 207.754 127.333 211.822 127.326C212.216 127.326 212.608 127.283 213.155 127.251L213.157 127.253ZM213.251 137.458C213.251 136.169 213.2 134.982 213.267 133.799C213.322 132.839 212.904 132.561 212.004 132.58C210.2 132.617 208.393 132.59 206.587 132.59C203.855 132.59 202.494 133.95 202.507 136.671C202.51 137.092 202.638 137.513 202.715 137.977C205.992 137.977 209.112 137.993 212.233 137.954C212.575 137.949 212.912 137.628 213.249 137.455L213.251 137.458Z" fill="#39C051"/>
    <path d="M60.0713 132.369C59.3038 132.408 58.8887 132.447 58.4736 132.449C53.2519 132.454 48.0318 132.472 42.81 132.435C41.6901 132.427 41.1869 132.789 41.2716 133.957C41.3394 134.887 41.3157 135.827 41.2767 136.759C41.2394 137.689 41.5851 138.065 42.561 138.058C47.8946 138.022 53.2281 138.039 58.5634 138.045C58.9497 138.045 59.3377 138.087 59.8053 138.114V142.928C59.3868 142.987 58.987 143.096 58.5855 143.096C51.8693 143.106 45.1515 143.093 38.4354 143.106C36.0261 143.112 33.7304 141.19 33.749 138.677C33.7948 132.648 33.7456 126.616 33.8134 120.587C33.8337 118.744 35.9973 116.831 37.961 116.821C43.8317 116.79 49.7023 116.737 55.5696 116.856C57.2419 116.89 59.2852 117.771 59.4817 120.274C59.7935 124.25 59.8833 128.244 60.073 132.367L60.0713 132.369ZM51.8676 121.927C48.5299 121.927 45.3209 121.898 42.1154 121.976C41.8307 121.983 41.3699 122.655 41.3258 123.054C41.2123 124.09 41.3191 125.147 41.2767 126.193C41.2394 127.093 41.641 127.385 42.4966 127.371C44.6127 127.337 46.7306 127.361 48.8467 127.361C49.8226 127.361 50.8002 127.361 51.8693 127.361V121.927H51.8676Z" fill="#18A3FA"/>
    <path d="M0.00201668 142.431C0.00201668 140.55 -0.00819208 138.755 0.0173283 136.962C0.020731 136.78 0.214686 136.582 0.355899 136.421C3.27032 133.121 6.19835 129.828 9.10937 126.522C11.8366 123.425 14.5486 120.315 17.2623 117.205C17.4188 117.026 17.5294 116.808 17.805 116.389H0.0734733V111.382H28.3245C28.219 113.911 28.9387 116.301 26.5653 118.55C23.1541 121.782 20.2771 125.568 17.1687 129.115C14.9757 131.618 12.7741 134.114 10.5844 136.621C10.4296 136.798 10.3497 137.04 10.1285 137.447H28.27V142.431H0.00201668Z" fill="#18A3FA"/>
    <path d="M154.56 129.958C154.56 132.81 154.54 135.663 154.567 138.515C154.594 141.372 152.6 143.008 149.985 143.039C144.461 143.102 138.932 143.159 133.412 143.024C129.808 142.935 128.571 141.418 128.423 138.135C128.177 132.695 128.199 127.23 128.417 121.788C128.548 118.544 129.844 116.906 133.408 116.852C139.017 116.766 144.63 116.745 150.237 116.874C152.709 116.932 154.519 118.463 154.552 121.146C154.587 124.083 154.56 127.02 154.56 129.957V129.958ZM146.841 137.942C146.909 137.492 147.015 137.116 147.017 136.738C147.029 132.19 147.012 127.642 147.037 123.094C147.042 122.227 146.736 121.878 145.846 121.89C143.012 121.924 140.178 121.899 137.345 121.907C137.047 121.907 136.749 121.98 136.409 122.026V137.943H146.843L146.841 137.942Z" fill="#18A3FA"/>
    <path d="M65.5932 116.877C65.9509 116.843 66.2471 116.792 66.5416 116.792C73.305 116.79 80.0683 116.754 86.8301 116.837C87.86 116.85 88.8849 117.431 89.552 117.637C91.0079 119.289 91.136 120.908 91.121 122.634C91.0661 128.787 91.1011 134.942 91.0977 141.095C91.0977 141.472 91.0528 141.85 91.0229 142.318H83.6638V121.867H73.3499C73.3166 122.301 73.2584 122.702 73.2584 123.101C73.2534 129.088 73.2368 135.076 73.2734 141.063C73.28 142.061 72.9972 142.467 71.9556 142.429C70.1837 142.366 68.4034 142.476 66.6381 142.361C66.2305 142.334 65.5267 141.704 65.5233 141.346C65.4584 133.419 65.4734 125.491 65.4768 117.562C65.4768 117.374 65.5383 117.186 65.5915 116.873L65.5932 116.877Z" fill="#18A3FA"/>
    <path d="M115.388 142.047V121.777C114.245 121.777 113.231 121.777 112.216 121.777C110.19 121.777 108.164 121.799 106.138 121.769C105.155 121.754 104.763 122.138 104.766 123.106C104.79 129.067 104.782 135.026 104.775 140.987C104.775 141.415 104.693 141.842 104.641 142.34H97.1968V116.899C97.5496 116.868 97.9058 116.806 98.2603 116.806C104.938 116.801 111.616 116.745 118.292 116.826C122.054 116.873 123.344 118.525 123.435 121.87C123.598 127.854 123.479 133.845 123.481 139.832C123.481 141.559 122.584 142.423 120.791 142.423C119.477 142.423 118.164 142.451 116.853 142.406C116.405 142.391 115.961 142.195 115.386 142.048L115.388 142.047Z" fill="#18A3FA"/>
    <path d="M168.345 137.585C168.774 137.71 169.266 137.975 169.759 137.979C175.764 138.007 181.768 137.996 187.773 138.001C188.155 138.001 188.537 138.038 188.994 138.063V143.024C188.634 143.055 188.338 143.1 188.041 143.1C180.368 143.104 172.697 143.116 165.024 143.092C162.879 143.085 160.613 141.375 160.645 138.707C160.752 130.003 160.688 121.298 160.668 112.594C160.667 111.707 161.047 111.379 161.869 111.386C163.593 111.399 165.317 111.357 167.039 111.411C167.519 111.426 167.991 111.698 168.342 111.813V137.586L168.345 137.585Z" fill="#39C051"/>
</svg>