<svg xmlns="http://www.w3.org/2000/svg" width="254" height="103" viewBox="0 0 254 103" fill="none">
    <path d="M107.61 49.2231H90.837C90.9528 50.6275 91.0544 51.885 91.1617 53.1707C91.6528 53.2159 92.0706 53.2837 92.4883 53.2865C97.6596 53.3232 102.834 53.3543 108.005 53.3713C108.519 53.3713 109.038 53.3148 109.543 53.2187C111.209 52.9022 111.83 52.4134 111.914 50.7632C112.041 48.2765 112.033 45.7729 111.895 43.2891C111.801 41.6078 111.203 41.1586 109.484 40.9099C108.742 40.8025 107.991 40.7206 107.243 40.7149C103.717 40.6867 100.189 40.6895 96.6603 40.681C96.1974 40.681 95.7373 40.681 95.2603 40.681V36.92H111.923V32.3141C111.72 32.2689 111.59 32.2095 111.457 32.2123C105.535 32.2999 99.6129 32.3791 93.6908 32.4977C92.2061 32.5288 91.3649 33.2607 91.187 34.8459C90.9753 36.7561 90.9189 38.6917 90.902 40.616C90.8681 44.1877 91.4947 44.8433 95.0344 44.8941C98.7972 44.9478 102.56 44.9168 106.323 44.9281C106.735 44.9281 107.144 44.962 107.607 44.9817V49.226L107.61 49.2231Z" fill="#FDFDFD"/>
    <path d="M203.978 30.257C203.202 30.2061 202.654 30.2033 202.118 30.1326C200.585 29.932 199.659 30.5876 199.106 32.0202C198.55 33.4641 197.844 34.8487 197.212 36.2644C191.792 48.398 186.378 60.5316 180.959 72.6653C180.004 74.7987 179.025 76.918 177.941 79.3029C177.52 78.4241 177.216 77.7996 176.925 77.1694C174.813 72.6116 172.708 68.0509 170.582 63.4986C170.413 63.137 170.131 62.5859 169.86 62.5577C168.68 62.4418 167.469 62.1988 166.266 62.6368C166.303 62.8572 166.294 63.0013 166.348 63.1172C169.538 69.9187 172.733 76.7202 175.934 83.5188C176.112 83.9003 176.346 84.262 176.597 84.5982C177.557 85.8839 178.511 85.8783 179.386 84.5728C179.671 84.1461 179.906 83.6771 180.12 83.208C182.836 77.2712 185.565 71.3428 188.25 65.3919C192.749 55.4171 197.223 45.431 201.7 35.4478C202.442 33.7919 203.159 32.1219 203.975 30.2541L203.978 30.257Z" fill="#FDFDFD"/>
    <path d="M158.337 49.2401H141.739V53.4222C142.507 53.4222 143.204 53.4335 143.902 53.4222C149.307 53.3176 154.71 53.2272 160.115 53.0859C161.897 53.0407 162.495 52.4558 162.557 50.6869C162.642 48.3387 162.676 45.9849 162.605 43.6367C162.549 41.7463 161.942 41.054 160.059 40.9353C157.109 40.7488 154.145 40.7375 151.187 40.6838C149.462 40.6528 147.738 40.6782 146.002 40.6782V36.7222H162.391V32.2886C157.496 32.2886 152.706 32.2745 147.913 32.2971C146.597 32.3028 145.279 32.3762 143.972 32.4921C142.643 32.6108 142.022 33.1081 141.971 34.2243C141.847 36.9963 141.745 39.7711 141.765 42.5432C141.776 44.134 142.208 44.5099 143.758 44.7359C144.545 44.8518 145.35 44.8857 146.146 44.8913C149.86 44.9139 153.578 44.9083 157.293 44.9224C157.648 44.9224 158.004 44.9761 158.34 45.0015V49.2401H158.337Z" fill="#FDFDFD"/>
    <path d="M137.248 53.4532C137.299 53.1763 137.364 52.9983 137.361 52.8203C137.302 46.94 137.265 41.0597 137.155 35.1794C137.116 33.094 136.616 32.5599 134.553 32.526C129.291 32.4441 124.027 32.4441 118.762 32.4582C117.379 32.461 116.778 33.012 116.594 34.3769C116.419 35.6795 116.321 36.9991 116.309 38.3102C116.27 42.9218 116.281 47.5362 116.278 52.1478C116.278 52.5547 116.315 52.9644 116.335 53.3515H120.597V36.9793H124.91V53.3402H128.766V36.985H133.127V53.247C134.62 53.3204 135.913 53.3854 137.243 53.4532H137.248Z" fill="#FDFDFD"/>
    <path d="M237.168 72.5522V68.2769H253.76V64.0638C253.466 64.0638 253.24 64.0638 253.017 64.0638C249.255 64.0638 245.489 64.0327 241.726 64.0751C239.474 64.1005 237.213 64.1655 234.969 64.3464C233.461 64.4679 232.911 65.0302 232.903 66.5109C232.871 71.7836 232.86 77.0564 232.987 82.3264C233.041 84.57 233.315 84.7254 235.516 84.7452C241.444 84.7989 247.369 84.8017 253.297 84.8158C253.466 84.8158 253.633 84.7282 253.856 84.6661C253.777 83.3634 253.7 82.1144 253.621 80.8344C248.044 80.7383 242.613 80.6479 237.187 80.5546V76.7145H253.74V72.5522H237.168Z" fill="#FDFDFD"/>
    <path d="M207.091 85.6833C206.778 84.861 206.637 84.4259 206.448 84.0161C204.029 78.7208 201.624 73.4197 199.171 68.1385C198.42 66.5222 197.59 64.9341 196.704 63.3884C195.93 62.0434 194.965 62.0406 194.135 63.3291C193.63 64.1175 193.178 64.9454 192.777 65.7931C190.423 70.8031 188.083 75.8188 185.76 80.84C182.805 87.2262 179.866 93.6179 176.933 100.013C176.589 100.761 176.332 101.553 175.974 102.488C176.623 102.55 177.077 102.592 177.535 102.635C178.952 102.759 179.872 102.259 180.462 100.843C181.416 98.5488 182.601 96.356 183.654 94.1011C186.827 87.2968 189.977 80.484 193.15 73.6797C193.796 72.2923 194.508 70.9359 195.191 69.5654C195.304 69.5513 195.419 69.5372 195.532 69.5231C196.596 71.648 197.697 73.7532 198.714 75.9007C200.1 78.8281 201.415 81.7923 202.77 84.7339C202.979 85.1888 203.125 85.7144 203.823 85.689C204.797 85.6522 205.776 85.6805 207.091 85.6805V85.6833Z" fill="#FDFDFD"/>
    <path d="M127.64 80.7355C125.732 80.7355 123.993 80.7722 122.257 80.727C119.299 80.6507 116.335 80.5942 113.382 80.3964C111.426 80.2636 111.26 80.0178 111.214 78.0878C111.161 75.8301 111.138 73.5695 111.189 71.3089C111.237 69.2603 111.96 68.551 114 68.3702C114.607 68.3165 115.223 68.3108 115.832 68.308C119.406 68.2911 122.98 68.2826 126.556 68.2656C126.965 68.2656 127.375 68.2289 127.795 68.2063V64.0751C123.064 64.0751 118.412 64.061 113.763 64.0836C112.307 64.0892 110.842 64.0977 109.399 64.2701C107.358 64.5103 106.961 64.9256 106.949 66.9771C106.918 72.199 106.96 77.4238 107.003 82.6457C107.008 83.2306 107.206 83.8127 107.342 84.5446C114.235 85.008 121.023 84.7537 127.928 84.8384C127.829 83.4086 127.739 82.154 127.64 80.7383V80.7355Z" fill="#FDFDFD"/>
    <path d="M215.991 68.2939V84.7961H220.33V68.3137H228.406V64.126H207.501V68.2939H215.991Z" fill="#FDFDFD"/>
    <path d="M140.311 84.7678H144.681V68.3165H153.31C153.2 66.8867 153.101 65.6038 152.991 64.1938H132.238V68.3221H140.311V84.7678Z" fill="#FDFDFD"/>
    <path d="M157.355 64.1881C157.016 71.1366 157.16 77.9663 157.121 84.8074H161.355V64.1881H157.355Z" fill="#FDFDFD"/>
    <path d="M37.0216 65.2449C40.5415 65.4484 42.8138 63.7812 44.9055 61.7043C46.7967 59.828 46.7007 57.4997 46.5963 54.9367C42.0545 57.2058 38.8761 60.3678 37.0216 65.2449Z" fill="#FDFDFD"/>
    <path d="M51.6067 43.5322C53.9834 42.8342 56.188 42.0543 58.4546 41.5626C60.2245 41.1783 61.4185 40.3165 62.4177 38.816C63.1883 37.6603 63.0867 36.6996 62.5645 35.4987C62.0423 35.5976 61.5653 35.6908 60.8709 35.8236C61.6754 37.1376 60.9697 38.0361 60.216 38.785C59.7248 39.271 58.9881 39.5818 58.3078 39.7966C55.9537 40.5341 53.5741 41.1953 51.1268 41.9102C51.2961 42.4838 51.4373 42.9529 51.6095 43.535L51.6067 43.5322Z" fill="#FDFDFD"/>
    <path d="M44.3183 63.6795C43.8752 63.883 43.5731 63.9847 43.305 64.1486C41.4363 65.3043 39.5874 66.4741 37.2446 66.3837C36.9425 66.3724 36.5248 66.7708 36.33 67.0845C35.9997 67.6242 35.8022 68.2458 35.5199 68.9042C36.824 68.9042 38.0293 69.0229 39.2035 68.8816C41.8654 68.5595 43.8752 66.5306 44.3155 63.6795H44.3183Z" fill="#FDFDFD"/>
    <path d="M34.7662 70.2408C34.388 70.9698 34.0605 71.6 33.6907 72.3064C35.407 72.3064 36.8946 72.3064 38.3793 72.3064C38.6136 72.3064 38.8507 72.3092 39.0765 72.2668C40.8182 71.9277 42.3029 70.3906 42.6134 68.3391C40.1125 69.9158 37.5099 70.464 34.7634 70.2436L34.7662 70.2408Z" fill="#FDFDFD"/>
    <path d="M83.608 21.0649C82.8035 21.3277 82.1656 21.5368 81.443 21.7742C81.8777 23.2125 82.2644 24.4897 82.6765 25.8573C83.4556 25.6454 84.0709 25.4787 84.7851 25.2837C84.3899 23.868 84.0258 22.5682 83.608 21.0649Z" fill="#FDFDFD"/>
    <path d="M47.3217 44.0097C49.5715 44.4533 49.7549 47.0982 49.3936 49.1186C49.3202 49.5255 49.1819 49.9239 49.0718 50.3252C48.2448 51.3424 47.4205 52.3597 46.5935 53.3769C44.8998 54.64 43.2598 55.9823 41.5013 57.1408C40.0447 58.0987 38.8592 59.2714 38.0886 60.7944C37.0752 62.795 36.2171 64.8748 35.2602 66.9065C33.5524 70.5262 31.6104 73.999 28.7001 76.8191C28.2062 77.2966 27.6755 77.7346 26.919 78.4071C29.1744 79.1192 31.2265 79.8849 33.3379 80.4021C36.9962 81.2978 40.7052 81.8601 44.5018 81.6256C49.515 81.3148 54.3588 80.2608 58.9542 78.2404C66.8522 74.7704 72.9973 69.2857 77.3302 61.8089C79.8566 57.4488 81.395 52.7355 82.0781 47.7566C82.2164 46.7535 82.6059 46.3579 83.5346 46.2392C84.0822 46.1685 84.6129 45.951 85.344 45.7447C85.3807 46.1968 85.4823 46.5896 85.4343 46.9654C84.2008 56.9656 80.1248 65.5473 72.8816 72.6342C69.0258 76.4065 64.5997 79.2576 59.7192 81.408C56.5436 82.8067 53.193 83.7195 49.7465 84.2733C46.6189 84.7763 43.4772 84.991 40.3326 84.7989C33.9815 84.4089 27.9465 82.8548 22.3377 79.7239C11.9077 73.9001 4.87061 65.3749 1.66116 53.8206C-0.0211871 47.7679 -0.534926 41.5881 0.628041 35.3772C1.8277 28.9684 4.28631 23.091 8.22684 17.8295C11.3686 13.6361 15.0861 10.0898 19.4867 7.29804C25.0588 3.7659 31.06 1.45729 37.7047 0.714127C41.3996 0.301573 45.0156 0.451336 48.6654 0.798899C52.6793 1.18037 56.4448 2.47737 60.1454 3.9863C60.5067 4.13324 60.8116 4.41581 61.3423 4.77185C58.9373 5.49241 56.9275 6.22144 54.4915 5.42176C48.1347 3.33639 41.6424 2.98883 35.0315 4.37625C28.8498 5.67325 23.1958 8.05251 18.3125 12.0396C11.5887 17.5271 6.88605 24.3823 4.68431 32.8962C3.14592 38.8528 3.08665 44.815 4.27219 50.7942C5.05127 54.7135 6.54732 58.3982 8.6192 62.0095C9.73419 59.9411 10.7673 57.997 11.823 56.067C13.5308 52.9418 15.2555 49.825 16.9689 46.7026C18.2504 44.3686 20.2178 43.0094 22.8232 42.5319C24.116 42.2945 25.4088 42.0487 26.6875 41.752C27.6219 41.5372 28.2344 41.8763 28.6522 42.6873C28.782 42.9359 28.957 43.1733 29.0276 43.4389C29.6909 45.9821 30.3571 48.5224 30.9753 51.0768C31.1926 51.9726 30.8257 52.6084 29.9224 52.9559C27.9154 53.7302 25.9226 54.5468 23.9241 55.3436C23.6644 55.4482 23.3962 55.5358 23.1394 55.6516C22.6454 55.8721 21.9115 56.0133 22.2417 56.7735C22.524 57.4177 23.1252 57.1125 23.5938 56.9147C26.2698 55.7873 28.9429 54.6542 31.6047 53.5013C31.9294 53.36 32.1919 53.0774 32.4854 52.8598C33.1262 52.2947 33.7641 51.7267 34.4049 51.1616C36.1973 49.469 37.9898 47.7736 39.785 46.081C42.111 44.7133 44.5442 43.7328 47.3217 44.0154V44.0097Z" fill="#F8FAF9"/>
    <path d="M107.61 49.2231V44.9789C107.15 44.9591 106.738 44.9252 106.325 44.9252C102.563 44.9139 98.8 44.945 95.0373 44.8913C91.4976 44.8405 90.8709 44.1849 90.9048 40.6132C90.9217 38.6889 90.9782 36.7533 91.1899 34.8431C91.3649 33.2579 92.2089 32.526 93.6936 32.4949C99.6157 32.3734 105.538 32.2971 111.46 32.2095C111.59 32.2095 111.722 32.266 111.926 32.3113V36.9172H95.2631V40.6782C95.7401 40.6782 96.203 40.6782 96.6632 40.6782C100.192 40.6867 103.717 40.6838 107.246 40.7121C107.994 40.7178 108.747 40.7997 109.487 40.9071C111.206 41.1557 111.801 41.605 111.897 43.2863C112.036 45.7729 112.044 48.2765 111.917 50.7603C111.833 52.4105 111.212 52.8994 109.546 53.2159C109.041 53.312 108.521 53.3713 108.008 53.3685C102.836 53.3515 97.6624 53.3204 92.4911 53.2837C92.0734 53.2809 91.6584 53.2131 91.1645 53.1678C91.06 51.8821 90.9556 50.6275 90.8399 49.2203H107.613L107.61 49.2231Z" fill="#F8FAF9"/>
    <path d="M203.978 30.257C203.159 32.1248 202.445 33.7948 201.703 35.4506C197.223 45.4339 192.752 55.4199 188.252 65.3947C185.568 71.3457 182.838 77.274 180.123 83.2108C179.908 83.6799 179.674 84.149 179.389 84.5756C178.514 85.8811 177.56 85.8868 176.6 84.6011C176.349 84.2648 176.118 83.9003 175.937 83.5216C172.733 76.7258 169.541 69.9243 166.351 63.12C166.297 63.0042 166.303 62.8572 166.269 62.6396C167.471 62.2016 168.682 62.4447 169.862 62.5605C170.133 62.5859 170.416 63.1398 170.585 63.5015C172.71 68.0537 174.816 72.6144 176.928 77.1723C177.218 77.8024 177.523 78.4241 177.944 79.3057C179.028 76.9208 180.007 74.8015 180.961 72.6681C186.384 60.5373 191.798 48.4009 197.215 36.2673C197.847 34.8516 198.553 33.467 199.109 32.023C199.662 30.5904 200.588 29.9348 202.121 30.1355C202.657 30.2061 203.204 30.2118 203.981 30.2598L203.978 30.257Z" fill="#DD7635"/>
    <path d="M158.337 49.2401V45.0015C158.001 44.9761 157.646 44.9224 157.29 44.9224C153.575 44.9111 149.858 44.9139 146.143 44.8913C145.347 44.8857 144.542 44.8518 143.755 44.7359C142.208 44.5099 141.776 44.134 141.762 42.5432C141.742 39.7711 141.844 36.9935 141.968 34.2243C142.019 33.1109 142.64 32.6108 143.969 32.4921C145.279 32.3762 146.597 32.3028 147.91 32.2971C152.703 32.2745 157.496 32.2886 162.388 32.2886V36.7222H145.999V40.6782C147.735 40.6782 149.46 40.6528 151.184 40.6838C154.143 40.7375 157.104 40.7488 160.056 40.9353C161.936 41.054 162.546 41.7463 162.602 43.6367C162.673 45.9849 162.639 48.3387 162.554 50.6869C162.492 52.4558 161.894 53.0407 160.113 53.0859C154.71 53.2272 149.304 53.3148 143.899 53.4222C143.202 53.4363 142.507 53.4222 141.737 53.4222V49.2401H158.337Z" fill="#F8FAF9"/>
    <path d="M137.248 53.4532C135.919 53.3882 134.626 53.3232 133.133 53.247V36.985H128.772V53.3402H124.916V36.9793H120.603V53.3515H116.34C116.321 52.9616 116.284 52.5547 116.284 52.1478C116.284 47.5362 116.276 42.9218 116.315 38.3102C116.326 36.9963 116.425 35.6767 116.6 34.3769C116.784 33.012 117.385 32.461 118.768 32.4582C124.032 32.4441 129.297 32.4441 134.558 32.526C136.622 32.5571 137.121 33.094 137.161 35.1794C137.271 41.0597 137.308 46.94 137.367 52.8203C137.367 52.9983 137.305 53.1763 137.254 53.4532H137.248Z" fill="#F8FAF9"/>
    <path d="M237.168 72.5522H253.74V76.7145H237.187V80.5546C242.613 80.6479 248.044 80.7383 253.621 80.8344C253.7 82.1144 253.777 83.3634 253.856 84.6661C253.633 84.7282 253.466 84.8186 253.297 84.8158C247.369 84.8017 241.444 84.7989 235.516 84.7452C233.315 84.7254 233.041 84.5672 232.987 82.3264C232.86 77.0564 232.871 71.7836 232.903 66.5109C232.911 65.0302 233.461 64.4679 234.969 64.3464C237.216 64.1655 239.474 64.1005 241.726 64.0751C245.489 64.0327 249.255 64.0638 253.017 64.0638C253.243 64.0638 253.466 64.0638 253.76 64.0638V68.2769H237.168V72.5522Z" fill="#F8FAF9"/>
    <path d="M102.498 84.7989H98.2524V76.8586H85.8126V84.748H81.5954C81.5615 84.6067 81.4853 84.4344 81.4853 84.2648C81.4994 78.571 81.5192 72.8772 81.5474 67.1805C81.5474 66.8047 81.5898 66.4289 81.6349 66.0559C81.745 65.1517 82.2785 64.5922 83.1451 64.4227C83.927 64.2701 84.7258 64.1457 85.519 64.1401C89.7503 64.109 93.9816 64.0355 98.21 64.1401C102.842 64.2559 102.43 65.0839 102.464 68.4691C102.512 73.5977 102.492 78.7292 102.501 83.8607C102.501 84.132 102.501 84.4061 102.501 84.7961L102.498 84.7989ZM85.838 72.4872H98.1451V68.356H85.838V72.4872Z" fill="#F8FAF9"/>
    <path d="M207.091 85.6833C205.773 85.6833 204.797 85.6579 203.823 85.6918C203.125 85.7172 202.979 85.1917 202.77 84.7367C201.415 81.7951 200.1 78.831 198.714 75.9035C197.697 73.756 196.596 71.6508 195.532 69.5259C195.419 69.54 195.304 69.5542 195.191 69.5683C194.508 70.9388 193.796 72.2951 193.15 73.6825C189.977 80.4868 186.827 87.2996 183.654 94.104C182.604 96.3589 181.416 98.5516 180.462 100.846C179.872 102.265 178.952 102.762 177.535 102.638C177.08 102.598 176.626 102.553 175.974 102.491C176.335 101.555 176.592 100.764 176.933 100.015C179.866 93.6207 182.805 87.2262 185.76 80.8429C188.083 75.8188 190.426 70.8059 192.777 65.796C193.175 64.9482 193.627 64.1175 194.135 63.3319C194.965 62.0434 195.93 62.0462 196.704 63.3913C197.593 64.9369 198.42 66.525 199.171 68.1413C201.624 73.4197 204.029 78.7208 206.448 84.019C206.637 84.4315 206.775 84.8667 207.091 85.6861V85.6833Z" fill="#DC7534"/>
    <path d="M127.64 80.7355C127.739 82.1512 127.826 83.4058 127.928 84.8356C121.023 84.7508 114.232 85.0051 107.342 84.5417C107.206 83.8099 107.008 83.2278 107.003 82.6429C106.96 77.4209 106.918 72.1962 106.949 66.9743C106.963 64.9256 107.358 64.5103 109.399 64.2672C110.842 64.0977 112.307 64.0892 113.763 64.0807C118.412 64.0581 123.064 64.0723 127.795 64.0723V68.2035C127.375 68.2233 126.965 68.26 126.556 68.2628C122.982 68.2798 119.409 68.2882 115.832 68.3052C115.223 68.308 114.607 68.3137 114 68.3674C111.96 68.551 111.237 69.2603 111.189 71.3061C111.138 73.5638 111.161 75.8244 111.214 78.085C111.26 80.0149 111.426 80.2608 113.382 80.3936C116.335 80.5914 119.299 80.6479 122.257 80.7242C123.993 80.7694 125.732 80.7327 127.64 80.7327V80.7355Z" fill="#F8FAF9"/>
    <path d="M34.4049 51.1559C33.7641 51.7211 33.1262 52.289 32.4854 52.8542C29.547 42.5714 26.6085 32.2886 23.6757 22.0059C23.2099 20.3698 23.5599 19.7029 25.2592 19.1858C28.3981 18.2335 31.5483 17.3208 34.7013 16.4081C40.1463 14.8342 45.597 13.2744 51.0421 11.7033C58.7425 9.48231 66.4401 7.25283 74.1377 5.02617C74.9479 4.79163 75.7495 4.52036 76.5681 4.31974C77.5928 4.06825 78.3521 4.41016 78.7077 5.41329C79.3683 7.26413 79.93 9.1517 80.5792 11.1664C79.8142 11.3642 79.1622 11.5338 78.4339 11.7203C78.0529 10.6239 77.717 9.65468 77.3839 8.68829C76.8165 7.04372 76.1898 6.69616 74.516 7.17653C70.7787 8.2503 67.047 9.34951 63.3125 10.4289C55.0758 12.8082 46.8334 15.1761 38.5967 17.5582C35.04 18.5868 31.489 19.6323 27.938 20.6863C26.442 21.1299 25.9564 21.907 26.3516 23.3029C28.9711 32.5147 31.6076 41.7237 34.244 50.9327C34.2666 51.0146 34.3513 51.0825 34.4077 51.1559H34.4049Z" fill="#DD7737"/>
    <path d="M215.991 68.2939H207.501V64.126H228.406V68.3137H220.33V84.7961H215.991V68.2939Z" fill="#F8FAF9"/>
    <path d="M140.311 84.7678V68.3221H132.238V64.1938H152.991C153.101 65.6038 153.2 66.8867 153.31 68.3165H144.681V84.7678H140.311Z" fill="#F8FAF9"/>
    <path d="M36.2256 35.8858C35.5933 33.5659 35.0005 31.3957 34.4105 29.2256C34.3738 29.0899 34.3456 28.9515 34.3259 28.8102C34.213 27.9851 36.2425 24.5434 37.0385 24.2975C39.5366 23.5261 42.0489 22.7886 44.6317 22.0115C44.8067 22.5484 44.9591 23.0175 45.1511 23.6024C43.5449 24.1054 41.9924 24.5971 40.4371 25.0774C40.0334 25.2018 39.6298 25.3515 39.2148 25.3996C37.4055 25.603 36.92 27.1317 36.186 28.4033C36.1014 28.5502 36.0788 28.7819 36.1211 28.9487C36.4486 30.2004 36.8014 31.4466 37.1966 32.8736C39.562 30.8306 41.7581 28.9374 43.9542 27.0441C46.4467 24.8966 48.9307 22.7406 51.4458 20.6185C51.8607 20.2681 52.3857 19.9883 52.9079 19.8386C63.6823 16.784 74.4595 13.7435 85.2452 10.7313C85.9057 10.5476 86.2219 10.2961 86.4448 9.59534C86.9219 8.08076 88.7369 7.37151 90.1313 8.00729C91.523 8.64025 92.1073 10.4092 91.3592 11.7175C90.5406 13.1473 88.6551 13.6559 87.3679 12.633C86.7328 12.13 86.267 12.1865 85.598 12.3758C74.9196 15.4107 64.2299 18.4172 53.5515 21.452C53.0773 21.5877 52.5974 21.8533 52.222 22.1754C47.302 26.397 42.3989 30.6441 37.4901 34.8798C37.1091 35.2104 36.6998 35.51 36.2256 35.8886V35.8858ZM90.0043 10.1859C89.7672 10.0249 89.4172 9.63773 89.0051 9.54731C88.4236 9.42015 88.0312 9.78749 88.0087 10.4233C87.9889 11.0195 88.2514 11.4208 88.8724 11.4914C89.4257 11.5536 89.9987 11.028 90.0043 10.1859Z" fill="#DD7737"/>
    <path d="M82.1035 18.9145C84.0455 18.42 86.0045 17.9764 87.9183 17.3858C88.274 17.2756 88.4631 16.5862 88.7059 16.1538C89.2535 15.1761 90.3487 14.6166 91.4072 14.7918C92.6323 14.9953 93.4396 15.6989 93.6908 16.7783C93.9674 17.9821 93.5412 19.0954 92.5561 19.7312C91.7121 20.2737 90.3205 20.302 89.5216 19.621C88.9345 19.118 88.4208 19.0841 87.7264 19.2819C77.1919 22.2771 66.6462 25.2385 56.1174 28.2564C55.3016 28.4909 54.4971 28.9797 53.8451 29.5364C48.9138 33.7439 44.0248 37.9966 39.116 42.2323C38.9185 42.4047 38.6757 42.5262 38.3172 42.7607C37.8204 40.9353 37.3603 39.2399 36.8776 37.4597C37.4478 37.2873 37.9249 37.1432 38.4837 36.9737C38.7576 37.8694 39.0116 38.7058 39.3249 39.7372C40.8464 38.4402 42.269 37.2449 43.6748 36.0271C46.7628 33.3511 49.8481 30.6723 52.9249 27.9823C53.7519 27.2589 54.6806 26.8096 55.7504 26.5129C64.2779 24.1478 72.7941 21.7374 81.3103 19.3328C81.601 19.2508 81.8551 19.0474 82.1261 18.9004L82.1035 18.9174V18.9145ZM90.789 18.4144C91.7036 18.3494 92.0677 18.064 92.0508 17.4197C92.0339 16.8235 91.7685 16.3997 91.1278 16.4138C90.4786 16.4279 89.9874 16.8094 90.0975 17.4621C90.1624 17.8577 90.6169 18.1883 90.789 18.4116V18.4144Z" fill="#DD7736"/>
    <path d="M46.5935 53.3769C47.4205 52.3597 48.2448 51.3424 49.0718 50.3252C51.4655 49.6724 53.8648 49.048 56.25 48.367C64.2271 46.0866 72.1929 43.7667 80.1784 41.5118C81.4514 41.1529 82.1938 40.486 82.5156 39.2032C83.0011 37.2478 83.5346 35.3009 84.133 33.3765C84.4294 32.4215 84.3984 31.5483 84.054 30.6356C83.8592 30.1128 83.7435 29.559 83.5685 28.9289C84.2488 28.7085 84.9036 28.4965 85.5839 28.2761C86.4223 30.3813 86.9727 32.3508 86.1315 34.5916C85.327 36.7335 84.8867 39.011 84.2798 41.2264C83.9975 42.2634 83.3483 42.902 82.2898 43.2044C74.897 45.3124 67.5128 47.4486 60.12 49.5622C55.6149 50.8508 51.1042 52.111 46.5963 53.3826L46.5935 53.3769Z" fill="#DD7737"/>
    <path d="M47.3217 44.0097C44.5442 43.73 42.111 44.7105 39.785 46.0753C39.658 45.691 39.531 45.3039 39.3588 44.7896C41.1541 44.346 42.8251 43.9588 44.4821 43.5039C45.0014 43.3598 45.5434 43.1196 45.9499 42.7749C48.99 40.1865 52.0272 37.5925 54.9996 34.925C55.9621 34.0632 57.0856 33.6987 58.2486 33.3709C68.7943 30.3954 79.3457 27.4369 89.9055 24.4727C90.0354 24.0856 90.1342 23.7267 90.2753 23.3848C90.854 21.9946 92.4206 21.339 93.7755 21.907C95.1445 22.4806 95.7909 24.063 95.2151 25.4306C94.6393 26.8039 92.9484 27.6432 91.7403 26.8407C90.5152 26.0297 89.4765 26.3264 88.305 26.6598C81.4571 28.6067 74.6063 30.5367 67.7583 32.478C64.5602 33.385 61.3536 34.2638 58.1752 35.2387C57.3594 35.4902 56.5436 35.9423 55.8887 36.4905C53.1507 38.7821 50.4719 41.1444 47.7762 43.4869C47.604 43.6367 47.4685 43.8345 47.3161 44.0097H47.3217ZM93.7473 24.2128C93.6936 23.7437 93.321 23.4018 92.6662 23.4131C92.0452 23.4244 91.7375 23.8172 91.7375 24.3993C91.7375 24.9785 92.0395 25.3713 92.6662 25.3883C93.321 25.4052 93.7247 25.1142 93.7473 24.2128Z" fill="#DC7636"/>
    <path d="M157.355 64.1881H161.355V84.8074H157.121C157.16 77.9691 157.016 71.1394 157.355 64.1881Z" fill="#F8FAF9"/>
    <path d="M37.0216 65.2449C38.8761 60.3678 42.0545 57.2058 46.5963 54.9367C46.7007 57.4997 46.7939 59.828 44.9055 61.7043C42.8138 63.7812 40.5415 65.4456 37.0216 65.2449Z" fill="#F8FAF9"/>
    <path d="M51.6067 43.5322C51.4345 42.9501 51.2933 42.481 51.124 41.9074C53.5741 41.1925 55.9508 40.5313 58.305 39.7937C58.9853 39.579 59.722 39.271 60.2132 38.7821C60.9668 38.0333 61.6725 37.1376 60.868 35.8208C61.5624 35.688 62.0423 35.5976 62.5617 35.4958C63.0867 36.6996 63.1855 37.6575 62.4149 38.8132C61.4185 40.3108 60.2216 41.1755 58.4518 41.5598C56.1851 42.0543 53.9806 42.8314 51.6038 43.5293L51.6067 43.5322Z" fill="#DD7736"/>
    <path d="M44.3183 63.6795C43.878 66.5278 41.8682 68.5595 39.2064 68.8816C38.0321 69.0229 36.8268 68.9042 35.5227 68.9042C35.805 68.2458 36.0026 67.6214 36.3328 67.0845C36.5248 66.7708 36.9454 66.3724 37.2474 66.3837C39.5903 66.4741 41.4392 65.3043 43.3078 64.1486C43.5731 63.9847 43.878 63.8801 44.3212 63.6795H44.3183Z" fill="#F8FAF9"/>
    <path d="M34.7662 70.2408C37.5099 70.4612 40.1125 69.913 42.6162 68.3363C42.3086 70.3877 40.821 71.9278 39.0793 72.264C38.8535 72.3092 38.6136 72.3036 38.3821 72.3036C36.8946 72.3064 35.407 72.3036 33.6936 72.3036C34.0633 71.5943 34.3908 70.967 34.769 70.238L34.7662 70.2408Z" fill="#F8FAF9"/>
    <path d="M82.1261 18.3353C81.5898 18.5218 81.0506 18.7111 80.5143 18.8976C80.1332 17.5893 79.7437 16.2499 79.309 14.7579C80.009 14.5403 80.6949 14.3284 81.4486 14.0939C81.776 15.2326 82.112 16.3714 82.4479 17.5158C82.5297 17.7899 82.6088 18.0612 82.6906 18.3353H82.1261Z" fill="#DE7A3B"/>
    <path d="M83.608 21.0649C84.0258 22.5654 84.3899 23.868 84.7851 25.2837C84.0709 25.4787 83.4528 25.6454 82.6765 25.8573C82.2644 24.4897 81.8777 23.2125 81.443 21.7742C82.1656 21.5368 82.8035 21.3277 83.608 21.0649Z" fill="#DE793A"/>
</svg>