<svg xmlns="http://www.w3.org/2000/svg" width="14" height="16" viewBox="0 0 14 16" fill="none">
    <path d="M6.77609 1.45656C6.92143 1.40797 7.07857 1.40797 7.22391 1.45656L12.0997 3.08641C12.4079 3.18944 12.6067 3.48963 12.5817 3.81449L12.2876 7.64867C12.0979 10.1222 10.7477 12.3582 8.64992 13.673L7.37527 14.472C7.14567 14.6159 6.85433 14.6159 6.62473 14.472L5.35008 13.673C3.25229 12.3582 1.90209 10.1222 1.71236 7.64867L1.41825 3.81449C1.39333 3.48963 1.59208 3.18944 1.90032 3.08641L6.77609 1.45656ZM7.67172 0.109314C7.2357 -0.0364381 6.7643 -0.0364377 6.32828 0.109314L1.4525 1.73917C0.527804 2.04827 -0.0684501 2.94882 0.00630701 3.92341L0.300412 7.75759C0.524643 10.6808 2.12033 13.3234 4.59954 14.8773L5.87419 15.6762C6.563 16.1079 7.437 16.1079 8.12581 15.6762L9.40046 14.8773C11.8797 13.3234 13.4754 10.6808 13.6996 7.75759L13.9937 3.92341C14.0685 2.94882 13.4722 2.04827 12.5475 1.73917L7.67172 0.109314ZM10.3329 6.10575C10.6094 5.82845 10.6094 5.37887 10.3329 5.10157C10.0564 4.82428 9.60807 4.82428 9.33156 5.10157L6.29194 8.14978L5.3765 7.23175C5.09999 6.95445 4.65167 6.95445 4.37515 7.23175C4.09864 7.50905 4.09864 7.95863 4.37515 8.23593L5.79127 9.65604C6.06778 9.93334 6.5161 9.93334 6.79261 9.65604L10.3329 6.10575Z" fill="#00FFD3"/>
</svg>