<svg xmlns="http://www.w3.org/2000/svg" width="174" height="31" viewBox="0 0 174 31" fill="none">
    <path d="M15.1558 0L18.5585 10.4724H29.5698L20.6615 16.9447L24.0642 27.4171L15.1558 20.9448L6.24745 27.4171L9.65014 16.9447L0.741778 10.4724H11.7531L15.1558 0Z" fill="#FFC24C"/>
    <path d="M50.9078 0L54.3104 10.4724H65.3218L56.4134 16.9447L59.8161 27.4171L50.9078 20.9448L41.9994 27.4171L45.4021 16.9447L36.4937 10.4724H47.5051L50.9078 0Z" fill="#FFC24C"/>
    <path d="M86.6597 0L90.0624 10.4724H101.074L92.1654 16.9447L95.5681 27.4171L86.6597 20.9448L77.7514 27.4171L81.154 16.9447L72.2457 10.4724H83.257L86.6597 0Z" fill="#FFC24C"/>
    <path d="M122.412 0L125.814 10.4724H136.826L127.917 16.9447L131.32 27.4171L122.412 20.9448L113.503 27.4171L116.906 16.9447L107.998 10.4724H119.009L122.412 0Z" fill="#FFC24C"/>
    <path d="M158.164 0L161.566 10.4724H172.578L163.669 16.9447L167.072 27.4171L158.164 20.9448L149.255 27.4171L152.658 16.9447L143.75 10.4724H154.761L158.164 0Z" fill="#FFC24C"/>
</svg>