<svg xmlns="http://www.w3.org/2000/svg" width="25" height="15" viewBox="0 0 25 15" fill="none">
    <path d="M14.5197 0.366117C15.1298 -0.122039 16.1192 -0.122039 16.7294 0.366116L24.5419 6.61611C24.8349 6.85053 24.9995 7.16848 24.9995 7.5C24.9995 7.83152 24.8349 8.14946 24.5419 8.38388L16.7294 14.6339C16.1192 15.122 15.1299 15.122 14.5197 14.6339C13.9095 14.1457 13.9095 13.3543 14.5197 12.8661L19.6648 8.75L1.56201 8.75C0.699067 8.75 -0.000488281 8.19035 -0.000488281 7.5C-0.000488188 6.80964 0.699067 6.25 1.56201 6.25L19.6648 6.25L14.5197 2.13388C13.9095 1.64573 13.9095 0.854272 14.5197 0.366117Z" fill="white"/>
</svg>