<svg width="1920" height="206" viewBox="0 0 1920 206" fill="none" xmlns="http://www.w3.org/2000/svg">
    <path d="M912.999 124.74L947.985 146.069L966.843 182L1007 94L912.999 124.74ZM927.044 126.347L988.654 106.197L949.927 140.312L927.044 126.347ZM966.461 168.301L954.037 144.647L992.859 110.451L966.461 168.301Z" fill="url(#paint0_linear_0_1)"/>
    <mask id="path-2-inside-1_0_1" fill="white">
        <path fill-rule="evenodd" clip-rule="evenodd" d="M1239.38 132.721V132.75H1035C1034.86 92.5483 1002.23 60 961.999 60C921.682 60 888.999 92.6832 888.999 133V131.641H0.999023L-3.00098 134.445H888.999V133C888.999 173.317 921.682 206 961.999 206C1002.23 206 1034.85 173.463 1035 133.27V135.554H1272.51V135.521H1282.73L1286.57 128.242L1289.78 135.517L1315.87 135.653L1324.14 161.602L1335.52 108.985L1342.13 135.521H1390.69L1393.15 116.716L1402.81 172.648L1412.93 99.2972L1418.87 134.46H1478.33L1484.86 145.388L1491.74 127.126L1500.61 181L1518.22 25.7258L1530.02 134.46H1690.66V134.445H1922.44V131.641H1654.61V131.659H1532.57L1518.28 0L1500.09 160.38L1492.83 116.226L1484.28 138.896L1479.96 131.659H1421.27L1412.65 80.5802L1402.5 154.171L1392.76 97.7997L1388.2 132.721H1344.36L1335.32 96.4741L1323.61 150.616L1317.95 132.863L1291.64 132.725L1286.79 121.745L1281.01 132.721H1239.38ZM962 204C1001.21 204 1033 172.212 1033 133C1033 93.7878 1001.21 62 962 62C922.788 62 891 93.7878 891 133C891 172.212 922.788 204 962 204Z"/>
    </mask>
    <path fill-rule="evenodd" clip-rule="evenodd" d="M1239.38 132.721V132.75H1035C1034.86 92.5483 1002.23 60 961.999 60C921.682 60 888.999 92.6832 888.999 133V131.641H0.999023L-3.00098 134.445H888.999V133C888.999 173.317 921.682 206 961.999 206C1002.23 206 1034.85 173.463 1035 133.27V135.554H1272.51V135.521H1282.73L1286.57 128.242L1289.78 135.517L1315.87 135.653L1324.14 161.602L1335.52 108.985L1342.13 135.521H1390.69L1393.15 116.716L1402.81 172.648L1412.93 99.2972L1418.87 134.46H1478.33L1484.86 145.388L1491.74 127.126L1500.61 181L1518.22 25.7258L1530.02 134.46H1690.66V134.445H1922.44V131.641H1654.61V131.659H1532.57L1518.28 0L1500.09 160.38L1492.83 116.226L1484.28 138.896L1479.96 131.659H1421.27L1412.65 80.5802L1402.5 154.171L1392.76 97.7997L1388.2 132.721H1344.36L1335.32 96.4741L1323.61 150.616L1317.95 132.863L1291.64 132.725L1286.79 121.745L1281.01 132.721H1239.38ZM962 204C1001.21 204 1033 172.212 1033 133C1033 93.7878 1001.21 62 962 62C922.788 62 891 93.7878 891 133C891 172.212 922.788 204 962 204Z" fill="#050C0B"/>
    <path d="M1239.38 132.75V134.75H1241.38V132.75H1239.38ZM1239.38 132.721V130.721H1237.38V132.721H1239.38ZM1035 132.75L1033 132.757L1033.01 134.75H1035V132.75ZM888.999 131.641H890.999V129.641H888.999V131.641ZM0.999023 131.641V129.641H0.367926L-0.148875 130.004L0.999023 131.641ZM-3.00098 134.445L-4.14887 132.807L-9.33914 136.445H-3.00098V134.445ZM888.999 134.445V136.445H890.999V134.445H888.999ZM1035 133.27H1037L1033 133.263L1035 133.27ZM1035 135.554H1033V137.554H1035V135.554ZM1272.51 135.554V137.554H1274.51V135.554H1272.51ZM1272.51 135.521V133.521H1270.51V135.521H1272.51ZM1282.73 135.521V137.521H1283.94L1284.5 136.453L1282.73 135.521ZM1286.57 128.242L1288.4 127.434L1286.73 123.653L1284.8 127.309L1286.57 128.242ZM1289.78 135.517L1287.95 136.325L1288.47 137.51L1289.77 137.517L1289.78 135.517ZM1315.87 135.653L1317.77 135.046L1317.33 133.661L1315.88 133.653L1315.87 135.653ZM1324.14 161.602L1322.23 162.209L1324.51 169.35L1326.09 162.025L1324.14 161.602ZM1335.52 108.985L1337.46 108.501L1333.57 108.562L1335.52 108.985ZM1342.13 135.521L1340.19 136.004L1340.57 137.521H1342.13V135.521ZM1390.69 135.521V137.521H1392.45L1392.68 135.78L1390.69 135.521ZM1393.15 116.716L1395.12 116.375L1391.16 116.457L1393.15 116.716ZM1402.81 172.648L1400.84 172.989L1404.8 172.921L1402.81 172.648ZM1412.93 99.2972L1414.91 98.9644L1410.95 99.0238L1412.93 99.2972ZM1418.87 134.46L1416.89 134.793L1417.18 136.46H1418.87V134.46ZM1478.33 134.46L1480.05 133.435L1479.47 132.46H1478.33V134.46ZM1484.86 145.388L1483.14 146.413L1485.27 149.973L1486.73 146.093L1484.86 145.388ZM1491.74 127.126L1493.72 126.801L1492.51 119.437L1489.87 126.42L1491.74 127.126ZM1500.61 181L1498.63 181.325L1502.59 181.225L1500.61 181ZM1518.22 25.7258L1520.21 25.51L1516.23 25.5003L1518.22 25.7258ZM1530.02 134.46L1528.03 134.676L1528.22 136.46H1530.02V134.46ZM1690.66 134.46V136.46H1692.66V134.46H1690.66ZM1690.66 134.445V132.445H1688.66V134.445H1690.66ZM1922.44 134.445V136.445H1924.44V134.445H1922.44ZM1922.44 131.641H1924.44V129.641H1922.44V131.641ZM1654.61 131.641V129.641H1652.61V131.641H1654.61ZM1654.61 131.659V133.659H1656.61V131.659H1654.61ZM1532.57 131.659L1530.58 131.875L1530.77 133.659H1532.57V131.659ZM1518.28 0L1520.27 -0.215725L1516.29 -0.225437L1518.28 0ZM1500.09 160.38L1498.11 160.704L1502.08 160.605L1500.09 160.38ZM1492.83 116.226L1494.8 115.901L1493.59 108.536L1490.96 115.52L1492.83 116.226ZM1484.28 138.896L1482.56 139.921L1484.69 143.482L1486.15 139.602L1484.28 138.896ZM1479.96 131.659L1481.67 130.634L1481.09 129.659H1479.96V131.659ZM1421.27 131.659L1419.3 131.992L1419.58 133.659H1421.27V131.659ZM1412.65 80.5802L1414.62 80.2474L1410.67 80.3069L1412.65 80.5802ZM1402.5 154.171L1400.53 154.512L1404.48 154.444L1402.5 154.171ZM1392.76 97.7997L1394.73 97.4591L1390.77 97.5408L1392.76 97.7997ZM1388.2 132.721V134.721H1389.95L1390.18 132.98L1388.2 132.721ZM1344.36 132.721L1342.42 133.205L1342.79 134.721H1344.36V132.721ZM1335.32 96.4741L1337.27 95.9906L1333.37 96.0512L1335.32 96.4741ZM1323.61 150.616L1321.71 151.223L1323.98 158.365L1325.57 151.039L1323.61 150.616ZM1317.95 132.863L1319.86 132.256L1319.42 130.871L1317.96 130.864L1317.95 132.863ZM1291.64 132.725L1289.81 133.533L1290.34 134.718L1291.63 134.725L1291.64 132.725ZM1286.79 121.745L1288.62 120.937L1286.95 117.155L1285.02 120.813L1286.79 121.745ZM1281.01 132.721V134.721H1282.21L1282.77 133.653L1281.01 132.721ZM1241.38 132.75V132.721H1237.38V132.75H1241.38ZM1035 134.75H1239.38V130.75H1035V134.75ZM961.999 62C1001.13 62 1032.87 93.6566 1033 132.757L1037 132.744C1036.86 91.44 1003.33 58 961.999 58V62ZM890.999 133C890.999 93.7878 922.787 62 961.999 62V58C920.578 58 886.999 91.5786 886.999 133H890.999ZM886.999 131.641V133H890.999V131.641H886.999ZM0.999023 133.641H888.999V129.641H0.999023V133.641ZM-1.85308 136.083L2.14692 133.279L-0.148875 130.004L-4.14887 132.807L-1.85308 136.083ZM888.999 132.445H-3.00098V136.445H888.999V132.445ZM886.999 133V134.445H890.999V133H886.999ZM961.999 204C922.787 204 890.999 172.212 890.999 133H886.999C886.999 174.421 920.578 208 961.999 208V204ZM1033 133.263C1032.86 172.354 1001.12 204 961.999 204V208C1003.33 208 1036.85 174.571 1037 133.277L1033 133.263ZM1037 135.554V133.27H1033V135.554H1037ZM1272.51 133.554H1035V137.554H1272.51V133.554ZM1270.51 135.521V135.554H1274.51V135.521H1270.51ZM1282.73 133.521H1272.51V137.521H1282.73V133.521ZM1284.8 127.309L1280.96 134.588L1284.5 136.453L1288.34 129.175L1284.8 127.309ZM1291.61 134.709L1288.4 127.434L1284.74 129.05L1287.95 136.325L1291.61 134.709ZM1315.88 133.653L1289.79 133.517L1289.77 137.517L1315.86 137.653L1315.88 133.653ZM1326.04 160.995L1317.77 135.046L1313.96 136.261L1322.23 162.209L1326.04 160.995ZM1333.57 108.562L1322.18 161.179L1326.09 162.025L1337.48 109.408L1333.57 108.562ZM1344.07 135.037L1337.46 108.501L1333.58 109.468L1340.19 136.004L1344.07 135.037ZM1390.69 133.521H1342.13V137.521H1390.69V133.521ZM1391.16 116.457L1388.71 135.262L1392.68 135.78L1395.13 116.975L1391.16 116.457ZM1404.79 172.307L1395.12 116.375L1391.18 117.056L1400.84 172.989L1404.79 172.307ZM1410.95 99.0238L1400.83 172.375L1404.8 172.921L1414.91 99.5705L1410.95 99.0238ZM1420.84 134.128L1414.91 98.9644L1410.96 99.6299L1416.89 134.793L1420.84 134.128ZM1478.33 132.46H1418.87V136.46H1478.33V132.46ZM1486.57 144.363L1480.05 133.435L1476.62 135.486L1483.14 146.413L1486.57 144.363ZM1489.87 126.42L1482.99 144.682L1486.73 146.093L1493.62 127.831L1489.87 126.42ZM1502.58 180.675L1493.72 126.801L1489.77 127.45L1498.63 181.325L1502.58 180.675ZM1516.23 25.5003L1498.62 180.775L1502.59 181.225L1520.21 25.9512L1516.23 25.5003ZM1532.01 134.245L1520.21 25.51L1516.23 25.9415L1528.03 134.676L1532.01 134.245ZM1690.66 132.46H1530.02V136.46H1690.66V132.46ZM1688.66 134.445V134.46H1692.66V134.445H1688.66ZM1922.44 132.445H1690.66V136.445H1922.44V132.445ZM1920.44 131.641V134.445H1924.44V131.641H1920.44ZM1654.61 133.641H1922.44V129.641H1654.61V133.641ZM1656.61 131.659V131.641H1652.61V131.659H1656.61ZM1532.57 133.659H1654.61V129.659H1532.57V133.659ZM1516.29 0.215725L1530.58 131.875L1534.55 131.443L1520.27 -0.215725L1516.29 0.215725ZM1502.08 160.605L1520.27 0.225437L1516.29 -0.225437L1498.1 160.154L1502.08 160.605ZM1490.85 116.55L1498.11 160.704L1502.06 160.055L1494.8 115.901L1490.85 116.55ZM1486.15 139.602L1494.7 116.931L1490.96 115.52L1482.41 138.19L1486.15 139.602ZM1478.24 132.684L1482.56 139.921L1486 137.871L1481.67 130.634L1478.24 132.684ZM1421.27 133.659H1479.96V129.659H1421.27V133.659ZM1410.68 80.913L1419.3 131.992L1423.24 131.326L1414.62 80.2474L1410.68 80.913ZM1404.48 154.444L1414.63 80.8535L1410.67 80.3069L1400.52 153.898L1404.48 154.444ZM1390.79 98.1404L1400.53 154.512L1404.47 153.831L1394.73 97.4591L1390.79 98.1404ZM1390.18 132.98L1394.74 98.0587L1390.77 97.5408L1386.21 132.462L1390.18 132.98ZM1344.36 134.721H1388.2V130.721H1344.36V134.721ZM1333.38 96.9577L1342.42 133.205L1346.3 132.237L1337.27 95.9906L1333.38 96.9577ZM1325.57 151.039L1337.28 96.897L1333.37 96.0512L1321.66 150.193L1325.57 151.039ZM1316.05 133.471L1321.71 151.223L1325.52 150.009L1319.86 132.256L1316.05 133.471ZM1291.63 134.725L1317.94 134.863L1317.96 130.864L1291.65 130.725L1291.63 134.725ZM1284.96 122.553L1289.81 133.533L1293.47 131.917L1288.62 120.937L1284.96 122.553ZM1282.77 133.653L1288.56 122.677L1285.02 120.813L1279.24 131.788L1282.77 133.653ZM1239.38 134.721H1281.01V130.721H1239.38V134.721ZM1031 133C1031 171.108 1000.11 202 962 202V206C1002.32 206 1035 173.317 1035 133H1031ZM962 64C1000.11 64 1031 94.8923 1031 133H1035C1035 92.6832 1002.32 60 962 60V64ZM893 133C893 94.8923 923.892 64 962 64V60C921.683 60 889 92.6832 889 133H893ZM962 202C923.892 202 893 171.108 893 133H889C889 173.317 921.683 206 962 206V202Z" fill="#5DF1D8" fill-opacity="0.5" mask="url(#path-2-inside-1_0_1)"/>
    <defs>
        <linearGradient id="paint0_linear_0_1" x1="928.205" y1="150.375" x2="1006.71" y2="93.603" gradientUnits="userSpaceOnUse">
            <stop stop-color="#48BBA7"/>
            <stop offset="1" stop-color="#61FFE4"/>
        </linearGradient>
    </defs>
</svg>