<svg xmlns="http://www.w3.org/2000/svg" width="28" height="28" viewBox="0 0 28 28" fill="none">
    <path d="M10.5667 2.5067L0.566667 4.00669C0.24 4.05336 0 4.33336 0 4.66669V12.6667C0 13.0333 0.3 13.3334 0.666667 13.3334H10.6667C11.0333 13.3334 11.3333 13.0333 11.3333 12.6667V3.16669C11.3333 2.97336 11.2467 2.78669 11.1 2.66003C10.9533 2.53336 10.76 2.48003 10.5667 2.5067ZM27.7667 0.160031C27.62 0.0333645 27.4267 -0.0199688 27.2333 0.00669785L13.2333 2.1067C12.9067 2.15336 12.6667 2.43336 12.6667 2.76669V12.6667C12.6667 13.0333 12.9667 13.3334 13.3333 13.3334H27.3333C27.7 13.3334 28 13.0333 28 12.6667V0.666697C28 0.473364 27.9133 0.286698 27.7667 0.160031ZM10.6667 14.6667H0.666667C0.3 14.6667 0 14.9667 0 15.3333V23.3333C0 23.66 0.24 23.9467 0.566667 23.9933L10.5667 25.4933C10.5667 25.4933 10.6333 25.5 10.6667 25.5C10.8267 25.5 10.98 25.4467 11.1 25.34C11.2467 25.2133 11.3333 25.0267 11.3333 24.8333V15.3333C11.3333 14.9667 11.0333 14.6667 10.6667 14.6667ZM27.3333 14.6667H13.3333C12.9667 14.6667 12.6667 14.9667 12.6667 15.3333V25.2333C12.6667 25.56 12.9067 25.8467 13.2333 25.8933L27.2333 27.9933C27.2333 27.9933 27.3 28 27.3333 28C27.4933 28 27.6467 27.9467 27.7667 27.84C27.9133 27.7133 28 27.5267 28 27.3333V15.3333C28 14.9667 27.7 14.6667 27.3333 14.6667Z" fill="white"/>
</svg>